<svg width="26" height="26" viewBox="0 0 26 26" fill="none" xmlns="http://www.w3.org/2000/svg">
<path d="M7.16001 20.9181C8.83049 22.3279 10.9441 23.1043 13.13 23.1111C18.368 23.1111 22.63 18.6831 22.63 13.2411C22.63 7.79809 18.368 3.37109 13.13 3.37109C10.9443 3.37758 8.83063 4.15364 7.16001 5.56309C5.48719 6.98141 4.32872 8.91174 3.86401 11.0551C3.80301 11.3351 3.97201 11.6151 4.24201 11.6781C4.30726 11.6925 4.37475 11.6938 4.4405 11.6818C4.50624 11.6697 4.56892 11.6447 4.62483 11.608C4.68074 11.5714 4.72876 11.524 4.76606 11.4685C4.80336 11.4131 4.82918 11.3507 4.84201 11.2851C5.72201 7.23809 9.13001 4.41209 13.13 4.41209C17.815 4.41209 21.627 8.37209 21.627 13.2411C21.627 18.1091 17.815 22.0691 13.13 22.0691C9.13001 22.0691 5.72201 19.2431 4.84201 15.1961C4.82918 15.1305 4.80336 15.0681 4.76606 15.0127C4.72876 14.9572 4.68074 14.9098 4.62483 14.8731C4.56892 14.8365 4.50624 14.8115 4.4405 14.7994C4.37475 14.7874 4.30726 14.7886 4.24201 14.8031C4.11021 14.8371 3.99692 14.9213 3.92631 15.0377C3.8557 15.1541 3.83334 15.2935 3.86401 15.4261C4.32845 17.5693 5.48656 19.4996 7.15901 20.9181H7.16001Z" fill="white"/>
<path d="M24.964 7.90705C24.908 7.78823 24.8081 7.69575 24.6853 7.64904C24.5625 7.60232 24.4263 7.60499 24.3055 7.6565C24.1846 7.708 24.0884 7.80433 24.037 7.92526C23.9857 8.04618 23.9832 8.18231 24.03 8.30505C24.663 9.79205 24.984 11.371 24.984 13C24.984 19.608 19.608 24.984 13 24.984C6.39205 24.984 1.01605 19.608 1.01605 13C1.01605 6.39205 6.39205 1.01605 13 1.01605C14.629 1.01605 16.209 1.33605 17.695 1.97005C17.8178 2.01691 17.9539 2.0144 18.0748 1.96304C18.1958 1.91169 18.2921 1.81547 18.3436 1.69461C18.3951 1.57374 18.3978 1.43762 18.3511 1.31483C18.3043 1.19203 18.2119 1.09211 18.093 1.03605C16.4831 0.349161 14.7504 -0.00330847 13 4.59668e-05C11.2922 -0.00451038 9.60043 0.329705 8.02262 0.983348C6.44482 1.63699 5.01232 2.59708 3.80805 3.80805C2.59708 5.01232 1.63699 6.44482 0.983348 8.02262C0.329705 9.60043 -0.00451038 11.2922 4.59668e-05 13C4.59668e-05 16.472 1.35205 19.737 3.80805 22.192C5.01232 23.403 6.44482 24.3631 8.02262 25.0167C9.60043 25.6704 11.2922 26.0046 13 26C16.472 26 19.737 24.648 22.192 22.192C23.403 20.9878 24.3631 19.5553 25.0167 17.9775C25.6704 16.3997 26.0046 14.7079 26 13C26 11.234 25.651 9.52005 24.964 7.90705Z" fill="white"/>
<path d="M18.783 4.08202H20.938V6.27002C20.938 6.53002 21.156 6.74002 21.426 6.74002C21.5528 6.7419 21.6752 6.69353 21.7665 6.60546C21.8577 6.5174 21.9104 6.39681 21.913 6.27002V4.08202H24.068C24.1948 4.0839 24.3172 4.03553 24.4085 3.94746C24.4997 3.8594 24.5524 3.73881 24.555 3.61202C24.5529 3.48489 24.5005 3.36379 24.4092 3.27529C24.3179 3.1868 24.1952 3.13815 24.068 3.14002H21.913V0.953025C21.912 0.889988 21.8985 0.827773 21.8735 0.769935C21.8484 0.712097 21.8121 0.659768 21.7668 0.615937C21.7215 0.572106 21.668 0.537632 21.6093 0.514483C21.5507 0.491335 21.4881 0.479965 21.425 0.481025C21.2979 0.479153 21.1752 0.527803 21.0839 0.616295C20.9926 0.704787 20.9401 0.825891 20.938 0.953025V3.14002H18.783C18.6561 3.13815 18.5335 3.18666 18.4423 3.27494C18.351 3.36322 18.2984 3.48407 18.296 3.61102C18.296 3.87102 18.514 4.08202 18.783 4.08202ZM4.33304 13.24C4.33225 13.0489 4.25589 12.8658 4.12063 12.7307C3.98538 12.5957 3.80219 12.5196 3.61104 12.519C3.41971 12.5196 3.23638 12.5958 3.10109 12.7311C2.9658 12.8664 2.88957 13.0497 2.88904 13.241C2.88904 13.639 3.21304 13.963 3.61104 13.963C3.80236 13.9625 3.9857 13.8863 4.12099 13.751C4.25627 13.6157 4.33251 13.4323 4.33304 13.241V13.24Z" fill="white"/>
<path fill-rule="evenodd" clip-rule="evenodd" d="M17.518 14.2981C17.518 15.6451 16.29 16.4851 14.641 16.4851C12.992 16.4851 11.764 15.6231 11.764 14.3081C11.764 13.3921 12.27 12.8211 13.121 12.4661C12.486 12.1311 12.022 11.6251 12.022 10.7631C12.022 9.61007 13.132 8.72607 14.641 8.72607C16.15 8.72607 17.26 9.59907 17.26 10.7841C17.26 11.6241 16.796 12.1311 16.16 12.4651C16.98 12.8431 17.518 13.3821 17.518 14.2981ZM10.255 8.78007V16.3781H8.93903V10.1271L7.58103 10.5041L7.30103 9.42607L9.32702 8.78007H10.254H10.255ZM14.643 12.0241C13.867 12.0241 13.295 11.5601 13.295 10.9031C13.295 10.3101 13.835 9.83607 14.643 9.83607C15.451 9.83607 15.99 10.3101 15.99 10.8921C15.99 11.5601 15.418 12.0241 14.643 12.0241ZM13.058 14.2441C13.058 14.8581 13.651 15.3751 14.642 15.3751C15.634 15.3751 16.226 14.8691 16.226 14.2221C16.226 13.5321 15.536 13.0801 14.642 13.0801C13.748 13.0801 13.058 13.5321 13.058 14.2441Z" fill="white"/>
</svg>
