<svg width="94" height="38" viewBox="0 0 94 38" fill="none" xmlns="http://www.w3.org/2000/svg">
<g clip-path="url(#clip0_10:447)">
<path d="M75.5811 38C85.7534 38 94 29.4932 94 19C94 8.50676 85.7534 0 75.5811 0C65.4088 0 57.1622 8.50676 57.1622 19C57.1622 29.4932 65.4088 38 75.5811 38ZM51.446 27.5172C51.9513 27.5172 52.4359 27.3102 52.7933 26.9416C53.1506 26.5729 53.3514 26.073 53.3514 25.5517C53.3514 25.0304 53.1506 24.5305 52.7933 24.1619C52.4359 23.7933 51.9513 23.5862 51.446 23.5862C50.9406 23.5862 50.456 23.7933 50.0986 24.1619C49.7413 24.5305 49.5405 25.0304 49.5405 25.5517C49.5405 26.073 49.7413 26.5729 50.0986 26.9416C50.456 27.3102 50.9406 27.5172 51.446 27.5172ZM42.9644 10.906H47.3188V27.6457H43.3035L36.6702 18.4654L36.7235 27.5146H32.3576V10.7972H36.3856L42.9656 20.5108L42.9644 10.906ZM23.3196 27.9274C19.1239 27.9274 16.2341 25.0892 16.2341 20.9891V10.906H20.6V20.9996C20.6 22.686 21.728 23.8496 23.3196 23.8496C24.9227 23.8496 26.0507 22.686 26.0507 21.0101V10.906H30.4166V20.9891C30.4166 25.0905 27.5268 27.9287 23.3196 27.9287V27.9274ZM9.49655 19.0432L15.8123 27.5159H10.3273L5.6273 20.7493H5.45963V27.5146H1.09244V10.906H5.45836V17.8246H5.57268L10.0123 10.906H15.0527L9.49655 19.0432Z" fill="#0C2F75"/>
<path d="M90.4547 27.5105V23.4969H84.243L90.9285 10.9019H78.3185V14.905H83.7692L77.0521 27.5105H90.4547ZM76.0828 20.985V10.9019H71.7169V21.0059C71.7169 22.6819 70.5889 23.8454 68.9858 23.8454C67.3942 23.8454 66.2662 22.6819 66.2662 20.9954V10.9019H61.9003V20.985C61.9003 25.0863 64.7889 27.9245 68.9858 27.9245C73.193 27.9245 76.0828 25.085 76.0828 20.985Z" fill="white"/>
</g>
<defs>
<clipPath id="clip0_10:447">
<rect width="94" height="38" fill="white"/>
</clipPath>
</defs>
</svg>
