<svg width="74" height="29" viewBox="0 0 74 29" fill="none" xmlns="http://www.w3.org/2000/svg">
<path d="M58.64 29C66.648 29 73.14 22.508 73.14 14.5C73.14 6.492 66.648 0 58.64 0C50.632 0 44.14 6.492 44.14 14.5C44.14 22.508 50.632 29 58.64 29ZM39.64 21C40.0378 21 40.4194 20.842 40.7007 20.5607C40.982 20.2794 41.14 19.8978 41.14 19.5C41.14 19.1022 40.982 18.7206 40.7007 18.4393C40.4194 18.158 40.0378 18 39.64 18C39.2422 18 38.8606 18.158 38.5793 18.4393C38.298 18.7206 38.14 19.1022 38.14 19.5C38.14 19.8978 38.298 20.2794 38.5793 20.5607C38.8606 20.842 39.2422 21 39.64 21ZM32.963 8.323H36.391V21.098H33.23L28.008 14.092L28.05 20.998H24.613V8.24H27.784L32.964 15.653L32.963 8.323ZM17.498 21.313C14.195 21.313 11.92 19.147 11.92 16.018V8.323H15.357V16.026C15.357 17.313 16.245 18.201 17.498 18.201C18.76 18.201 19.648 17.313 19.648 16.034V8.323H23.085V16.018C23.085 19.148 20.81 21.314 17.498 21.314V21.313ZM6.616 14.533L11.588 20.999H7.27L3.57 15.835H3.438V20.998H0V8.323H3.437V13.603H3.527L7.022 8.323H10.99L6.616 14.533Z" fill="#0C2F75"/>
<path d="M70.349 20.9948V17.9318H65.459L70.722 8.31982H60.795V11.3748H65.086L59.798 20.9948H70.349ZM59.035 16.0148V8.31982H55.598V16.0308C55.598 17.3098 54.71 18.1978 53.448 18.1978C52.195 18.1978 51.307 17.3098 51.307 16.0228V8.31982H47.87V16.0148C47.87 19.1448 50.144 21.3108 53.448 21.3108C56.76 21.3108 59.035 19.1438 59.035 16.0148Z" fill="white"/>
</svg>
