<svg width="11" height="11" viewBox="0 0 11 11" fill="none" xmlns="http://www.w3.org/2000/svg">
<path fill-rule="evenodd" clip-rule="evenodd" d="M0.761539 4.95C0.761539 2.63678 2.63678 0.761539 4.95 0.761539C7.26323 0.761539 9.13847 2.63678 9.13847 4.95C9.13847 7.26323 7.26323 9.13847 4.95 9.13847C2.63678 9.13847 0.761539 7.26323 0.761539 4.95ZM4.95 0C2.21619 0 0 2.21619 0 4.95C0 7.68381 2.21619 9.9 4.95 9.9C6.19131 9.9 7.3259 9.4431 8.19477 8.68828L10.4042 10.8977C10.5406 11.0341 10.7617 11.0341 10.8981 10.8977C11.0344 10.7613 11.0344 10.5402 10.8981 10.4039L8.6886 8.19441C9.44322 7.32559 9.9 6.19114 9.9 4.95C9.9 2.21619 7.68381 0 4.95 0Z" fill="black"/>
</svg>
