<svg width="104" height="32" viewBox="0 0 104 32" fill="none" xmlns="http://www.w3.org/2000/svg">
<rect width="104" height="32" fill="#0C2F75"/>
<path d="M21.052 20.096C20.204 20.096 19.44 19.912 18.76 19.544C18.08 19.168 17.544 18.652 17.152 17.996C16.768 17.34 16.576 16.608 16.576 15.8C16.576 14.992 16.768 14.26 17.152 13.604C17.544 12.948 18.08 12.436 18.76 12.068C19.44 11.692 20.204 11.504 21.052 11.504C21.892 11.504 22.652 11.692 23.332 12.068C24.012 12.436 24.544 12.948 24.928 13.604C25.312 14.252 25.504 14.984 25.504 15.8C25.504 16.616 25.312 17.352 24.928 18.008C24.544 18.656 24.012 19.168 23.332 19.544C22.652 19.912 21.892 20.096 21.052 20.096ZM21.052 19.028C21.668 19.028 22.22 18.888 22.708 18.608C23.204 18.328 23.592 17.944 23.872 17.456C24.16 16.96 24.304 16.408 24.304 15.8C24.304 15.192 24.16 14.644 23.872 14.156C23.592 13.66 23.204 13.272 22.708 12.992C22.22 12.712 21.668 12.572 21.052 12.572C20.436 12.572 19.876 12.712 19.372 12.992C18.876 13.272 18.484 13.66 18.196 14.156C17.916 14.644 17.776 15.192 17.776 15.8C17.776 16.408 17.916 16.96 18.196 17.456C18.484 17.944 18.876 18.328 19.372 18.608C19.876 18.888 20.436 19.028 21.052 19.028ZM27.2823 11.024C27.5063 11.024 27.6903 11.104 27.8343 11.264C27.9863 11.416 28.0623 11.608 28.0623 11.84C28.0623 11.96 28.0503 12.08 28.0263 12.2C28.0023 12.312 27.9503 12.476 27.8703 12.692L27.2943 14.372H26.5383L26.9823 12.584C26.8303 12.528 26.7063 12.436 26.6103 12.308C26.5223 12.172 26.4783 12.016 26.4783 11.84C26.4783 11.6 26.5543 11.404 26.7063 11.252C26.8583 11.1 27.0503 11.024 27.2823 11.024ZM34.4291 19.052V20H29.1011V19.256L32.8571 14.588H29.1731V13.64H34.3331V14.396L30.5771 19.052H34.4291ZM39.3429 13.58C39.9589 13.58 40.5109 13.716 40.9989 13.988C41.4869 14.26 41.8669 14.64 42.1389 15.128C42.4189 15.616 42.5589 16.18 42.5589 16.82C42.5589 17.46 42.4189 18.028 42.1389 18.524C41.8669 19.012 41.4869 19.392 40.9989 19.664C40.5109 19.936 39.9589 20.072 39.3429 20.072C38.8709 20.072 38.4389 19.98 38.0469 19.796C37.6549 19.612 37.3309 19.344 37.0749 18.992V20H35.9709V11.096H37.1229V14.6C37.3789 14.264 37.6989 14.012 38.0829 13.844C38.4669 13.668 38.8869 13.58 39.3429 13.58ZM39.2469 19.064C39.6549 19.064 40.0189 18.972 40.3389 18.788C40.6669 18.596 40.9229 18.332 41.1069 17.996C41.2989 17.652 41.3949 17.26 41.3949 16.82C41.3949 16.38 41.2989 15.992 41.1069 15.656C40.9229 15.312 40.6669 15.048 40.3389 14.864C40.0189 14.68 39.6549 14.588 39.2469 14.588C38.8469 14.588 38.4829 14.68 38.1549 14.864C37.8269 15.048 37.5709 15.312 37.3869 15.656C37.2029 15.992 37.1109 16.38 37.1109 16.82C37.1109 17.26 37.2029 17.652 37.3869 17.996C37.5709 18.332 37.8269 18.596 38.1549 18.788C38.4829 18.972 38.8469 19.064 39.2469 19.064ZM49.8986 16.856C49.8986 16.944 49.8906 17.06 49.8746 17.204H44.7146C44.7866 17.764 45.0306 18.216 45.4466 18.56C45.8706 18.896 46.3946 19.064 47.0186 19.064C47.7786 19.064 48.3906 18.808 48.8546 18.296L49.4906 19.04C49.2026 19.376 48.8426 19.632 48.4106 19.808C47.9866 19.984 47.5106 20.072 46.9826 20.072C46.3106 20.072 45.7146 19.936 45.1946 19.664C44.6746 19.384 44.2706 18.996 43.9826 18.5C43.7026 18.004 43.5626 17.444 43.5626 16.82C43.5626 16.204 43.6986 15.648 43.9706 15.152C44.2506 14.656 44.6306 14.272 45.1106 14C45.5986 13.72 46.1466 13.58 46.7546 13.58C47.3626 13.58 47.9026 13.72 48.3746 14C48.8546 14.272 49.2266 14.656 49.4906 15.152C49.7626 15.648 49.8986 16.216 49.8986 16.856ZM46.7546 14.552C46.2026 14.552 45.7386 14.72 45.3626 15.056C44.9946 15.392 44.7786 15.832 44.7146 16.376H48.7946C48.7306 15.84 48.5106 15.404 48.1346 15.068C47.7666 14.724 47.3066 14.552 46.7546 14.552ZM53.9703 17.036L52.6503 18.26V20H51.4983V11.096H52.6503V16.808L56.1183 13.64H57.5103L54.8343 16.268L57.7743 20H56.3583L53.9703 17.036ZM58.8108 13.64H59.9628V20H58.8108V13.64ZM59.3868 12.416C59.1628 12.416 58.9748 12.344 58.8228 12.2C58.6788 12.056 58.6068 11.88 58.6068 11.672C58.6068 11.464 58.6788 11.288 58.8228 11.144C58.9748 10.992 59.1628 10.916 59.3868 10.916C59.6108 10.916 59.7948 10.988 59.9388 11.132C60.0908 11.268 60.1668 11.44 60.1668 11.648C60.1668 11.864 60.0908 12.048 59.9388 12.2C59.7948 12.344 59.6108 12.416 59.3868 12.416ZM63.9863 20.072C63.4663 20.072 62.9663 20.004 62.4863 19.868C62.0063 19.724 61.6303 19.544 61.3583 19.328L61.8383 18.416C62.1183 18.616 62.4583 18.776 62.8583 18.896C63.2583 19.016 63.6623 19.076 64.0703 19.076C65.0783 19.076 65.5823 18.788 65.5823 18.212C65.5823 18.02 65.5143 17.868 65.3783 17.756C65.2423 17.644 65.0703 17.564 64.8623 17.516C64.6623 17.46 64.3743 17.4 63.9983 17.336C63.4863 17.256 63.0663 17.164 62.7383 17.06C62.4183 16.956 62.1423 16.78 61.9103 16.532C61.6783 16.284 61.5623 15.936 61.5623 15.488C61.5623 14.912 61.8023 14.452 62.2823 14.108C62.7623 13.756 63.4063 13.58 64.2143 13.58C64.6383 13.58 65.0623 13.632 65.4863 13.736C65.9103 13.84 66.2583 13.98 66.5303 14.156L66.0383 15.068C65.5183 14.732 64.9063 14.564 64.2023 14.564C63.7143 14.564 63.3423 14.644 63.0863 14.804C62.8303 14.964 62.7023 15.176 62.7023 15.44C62.7023 15.648 62.7743 15.812 62.9183 15.932C63.0623 16.052 63.2383 16.14 63.4463 16.196C63.6623 16.252 63.9623 16.316 64.3463 16.388C64.8583 16.476 65.2703 16.572 65.5823 16.676C65.9023 16.772 66.1743 16.94 66.3983 17.18C66.6223 17.42 66.7343 17.756 66.7343 18.188C66.7343 18.764 66.4863 19.224 65.9903 19.568C65.5023 19.904 64.8343 20.072 63.9863 20.072ZM71.75 19.628C71.582 19.772 71.374 19.884 71.126 19.964C70.878 20.036 70.622 20.072 70.358 20.072C69.718 20.072 69.222 19.9 68.87 19.556C68.518 19.212 68.342 18.72 68.342 18.08V14.588H67.262V13.64H68.342V12.248H69.494V13.64H71.318V14.588H69.494V18.032C69.494 18.376 69.578 18.64 69.746 18.824C69.922 19.008 70.17 19.1 70.49 19.1C70.842 19.1 71.142 19 71.39 18.8L71.75 19.628ZM75.6558 20.072C75.0238 20.072 74.4558 19.932 73.9518 19.652C73.4478 19.372 73.0518 18.988 72.7638 18.5C72.4838 18.004 72.3438 17.444 72.3438 16.82C72.3438 16.196 72.4838 15.64 72.7638 15.152C73.0518 14.656 73.4478 14.272 73.9518 14C74.4558 13.72 75.0238 13.58 75.6558 13.58C76.2878 13.58 76.8518 13.72 77.3478 14C77.8518 14.272 78.2438 14.656 78.5238 15.152C78.8118 15.64 78.9558 16.196 78.9558 16.82C78.9558 17.444 78.8118 18.004 78.5238 18.5C78.2438 18.988 77.8518 19.372 77.3478 19.652C76.8518 19.932 76.2878 20.072 75.6558 20.072ZM75.6558 19.064C76.0638 19.064 76.4278 18.972 76.7478 18.788C77.0758 18.596 77.3318 18.332 77.5158 17.996C77.6998 17.652 77.7918 17.26 77.7918 16.82C77.7918 16.38 77.6998 15.992 77.5158 15.656C77.3318 15.312 77.0758 15.048 76.7478 14.864C76.4278 14.68 76.0638 14.588 75.6558 14.588C75.2478 14.588 74.8798 14.68 74.5518 14.864C74.2318 15.048 73.9758 15.312 73.7838 15.656C73.5998 15.992 73.5078 16.38 73.5078 16.82C73.5078 17.26 73.5998 17.652 73.7838 17.996C73.9758 18.332 74.2318 18.596 74.5518 18.788C74.8798 18.972 75.2478 19.064 75.6558 19.064ZM83.945 13.58C84.753 13.58 85.393 13.816 85.865 14.288C86.345 14.752 86.585 15.436 86.585 16.34V20H85.433V16.472C85.433 15.856 85.285 15.392 84.989 15.08C84.693 14.768 84.269 14.612 83.717 14.612C83.093 14.612 82.601 14.796 82.241 15.164C81.881 15.524 81.701 16.044 81.701 16.724V20H80.549V13.64H81.653V14.6C81.885 14.272 82.197 14.02 82.589 13.844C82.989 13.668 83.441 13.58 83.945 13.58Z" fill="white"/>
</svg>
