<svg width="18" height="18" viewBox="0 0 18 18" fill="none" xmlns="http://www.w3.org/2000/svg">
<path opacity="0.6" d="M14.3994 18C14.3994 10.1014 7.89862 3.60056 0 3.60056V0C9.873 0 18 8.127 18 18H14.3994ZM2.46656 13.0607C3.12201 13.0619 3.75027 13.3228 4.21375 13.7863C4.67722 14.2497 4.93812 14.878 4.93931 15.5334C4.93931 16.893 3.82331 18 2.46094 18C1.10137 18 0 16.8953 0 15.5334C0 14.1716 1.10756 13.0607 2.46656 13.0607ZM11.9329 18H8.43188C8.43188 13.374 4.626 9.56531 0 9.56531V6.06713C6.54469 6.06713 11.9329 11.4548 11.9329 18Z" fill="white"/>
</svg>
